<svg xmlns="http://www.w3.org/2000/svg" width="24" height="24" viewBox="0 0 24 24">
  <g>
    <path d="M7.25 22C7.25 21.5859 7.58594 21.25 8 21.25H16C16.4141 21.25 16.75 21.5859 16.75 22C16.75 22.4141 16.4141 22.75 16 22.75H8C7.58594 22.75 7.25 22.4141 7.25 22Z" fill="#637394"  opacity="0.7"/>
    <path d="M12 1.25C12.4141 1.25 12.75 1.58594 12.75 2V3C12.75 3.41406 12.4141 3.75 12 3.75C11.5859 3.75 11.25 3.41406 11.25 3V2C11.25 1.58594 11.5859 1.25 12 1.25ZM1.25 12C1.25 11.5859 1.58594 11.25 2 11.25H3C3.41406 11.25 3.75 11.5859 3.75 12C3.75 12.4141 3.41406 12.75 3 12.75H2C1.58594 12.75 1.25 12.4141 1.25 12ZM20.25 12C20.25 11.5859 20.5859 11.25 21 11.25H22C22.4141 11.25 22.75 11.5859 22.75 12C22.75 12.4141 22.4141 12.75 22 12.75H21C20.5859 12.75 20.25 12.4141 20.25 12Z" fill="#FC6D19"/>
    <path d="M6.08203 15.25H2C1.58594 15.25 1.25 15.5859 1.25 16C1.25 16.4141 1.58594 16.75 2 16.75H22C22.4141 16.75 22.75 16.4141 22.75 16C22.75 15.5859 22.4141 15.25 22 15.25H6.08203Z"  fill="#637394" opacity="1"/>
    <path d="M4.25 19C4.25 18.5859 4.58594 18.25 5 18.25H19C19.4141 18.25 19.75 18.5859 19.75 19C19.75 19.4141 19.4141 19.75 19 19.75H5C4.58594 19.75 4.25 19.4141 4.25 19Z"  fill="#637394" opacity="0.7"/>
    <path d="M4.39844 4.39844C4.69141 4.10547 5.16797 4.10547 5.46094 4.39844L5.85156 4.79297C6.14453 5.08594 6.14453 5.55859 5.85156 5.85156C5.55859 6.14453 5.08594 6.14453 4.79297 5.85156L4.39844 5.46094C4.10547 5.16797 4.10547 4.69141 4.39844 4.39844Z"  fill="#FC6D19" />
    <path d="M19.6016 4.39844C19.8945 4.69141 19.8945 5.16797 19.6016 5.46094L19.207 5.85156C18.9141 6.14453 18.4414 6.14453 18.1484 5.85156C17.8555 5.55859 17.8555 5.08594 18.1484 4.79297L18.5391 4.39844C18.832 4.10547 19.3086 4.10547 19.6016 4.39844Z"  fill="#FC6D19" />
    <path d="M5.25 12C5.25 13.1797 5.55078 14.2852 6.08203 15.25H17.918C18.4492 14.2852 18.75 13.1797 18.75 12C18.75 8.27344 15.7266 5.25 12 5.25C8.27344 5.25 5.25 8.27344 5.25 12Z"  fill="#FC6D19" />
  </g>
</svg>