<svg xmlns="http://www.w3.org/2000/svg" xmlns:xlink="http://www.w3.org/1999/xlink" width="22px"
    height="22px" viewBox="0 0 22 22" version="1.1">
    <g id="surface1">
        <path
            style="fill:none;stroke-width:2;stroke-linecap:round;stroke-linejoin:round;stroke:currentColor;stroke-opacity:1;stroke-miterlimit:4;"
            d="M 21.044744 24.20206 C 23.731179 23.882102 26.321023 23.248224 28.772017 22.342685 C 26.737571 20.084872 25.5 17.090554 25.5 13.8125 L 25.5 12.822443 C 25.5 12.798295 25.5 12.774148 25.5 12.75 C 25.5 8.053267 21.696733 4.25 17 4.25 C 12.303267 4.25 8.5 8.053267 8.5 12.75 L 8.5 13.8125 C 8.5 17.090554 7.262429 20.084872 5.227983 22.342685 C 7.678977 23.248224 10.268821 23.882102 12.955256 24.20206 M 21.044744 24.20206 C 19.722656 24.35902 18.370384 24.4375 17 24.4375 C 15.629616 24.4375 14.277344 24.35902 12.955256 24.20206 M 21.044744 24.20206 C 21.177557 24.606534 21.25 25.04723 21.25 25.5 C 21.25 27.848366 19.348366 29.75 17 29.75 C 14.651634 29.75 12.75 27.848366 12.75 25.5 C 12.75 25.04723 12.822443 24.606534 12.955256 24.20206 "
            transform="matrix(0.647059,0,0,0.647059,0,0)" />
    </g>
</svg>